<svg width="43" height="34" viewBox="0 0 43 34" fill="none" xmlns="http://www.w3.org/2000/svg">
<path d="M28.2374 16.2056L19.2655 10.2243C19.0966 10.113 18.9007 10.0495 18.6986 10.0405C18.4965 10.0315 18.2958 10.0773 18.1176 10.1731C17.9394 10.2689 17.7905 10.4111 17.6866 10.5846C17.5826 10.7581 17.5275 10.9566 17.5272 11.1588V23.1214C17.5274 23.3253 17.5832 23.5253 17.6886 23.6999C17.794 23.8744 17.945 24.0169 18.1253 24.1121C18.3024 24.2076 18.5022 24.2529 18.7032 24.2431C18.9042 24.2332 19.0986 24.1685 19.2655 24.056L28.2374 18.0747C28.3917 17.9724 28.5182 17.8335 28.6057 17.6705C28.6932 17.5074 28.739 17.3252 28.739 17.1401C28.739 16.9551 28.6932 16.7729 28.6057 16.6098C28.5182 16.4467 28.3917 16.3079 28.2374 16.2056ZM19.7702 21.028V13.2523L25.6019 17.1401L19.7702 21.028ZM41.1533 6.35511C40.9906 5.72426 40.6804 5.14109 40.2482 4.65363C39.816 4.16617 39.2742 3.78838 38.6673 3.55138C32.2935 1.10279 22.0692 1.14017 21.6393 1.14017C21.2094 1.14017 10.9851 1.10279 4.61132 3.55138C4.00448 3.78838 3.46263 4.16617 3.03041 4.65363C2.5982 5.14109 2.28799 5.72426 2.12534 6.35511C1.63936 8.18688 1.07861 11.5514 1.07861 17.1401C1.07861 22.7289 1.63936 26.0934 2.12534 27.9252C2.28799 28.556 2.5982 29.1392 3.03041 29.6266C3.46263 30.1141 4.00448 30.4919 4.61132 30.7289C10.9851 33.1775 21.2094 33.1401 21.6393 33.1401H21.7702C23.0599 33.1401 32.5926 33.0653 38.6673 30.7289C39.2742 30.4919 39.816 30.1141 40.2482 29.6266C40.6804 29.1392 40.9906 28.556 41.1533 27.9252C41.6393 26.0934 42.2 22.7289 42.2 17.1401C42.2 11.5514 41.6393 8.18688 41.1533 6.35511V6.35511ZM38.9851 27.3644C38.9115 27.6497 38.7716 27.9135 38.5767 28.1344C38.3818 28.3552 38.1374 28.5269 37.8636 28.6354C31.8823 30.9345 21.7515 30.8971 21.6393 30.8971C21.5272 30.8971 11.3963 30.9345 5.41505 28.6354C5.14119 28.5269 4.89684 28.3552 4.70194 28.1344C4.50705 27.9135 4.36711 27.6497 4.29356 27.3644C3.84496 25.6448 3.3216 22.4859 3.3216 17.1401C3.3216 11.7944 3.84496 8.63548 4.29356 6.91586C4.36711 6.63061 4.50705 6.36679 4.70194 6.14591C4.89684 5.92502 5.14119 5.75333 5.41505 5.64483C11.3963 3.34577 21.5272 3.38316 21.6393 3.38316C21.7515 3.38316 31.8823 3.34577 37.8636 5.64483C38.1374 5.75333 38.3818 5.92502 38.5767 6.14591C38.7716 6.36679 38.9115 6.63061 38.9851 6.91586C39.4337 8.63548 39.957 11.7944 39.957 17.1401C39.957 22.4859 39.4337 25.6448 38.9851 27.3644V27.3644Z" fill="#F3F3F3" stroke="#F3F3F3" stroke-width="0.5"/>
</svg>
