<svg width="29" height="33" viewBox="0 0 29 33" fill="none" xmlns="http://www.w3.org/2000/svg">
<path d="M6.60001 32.1401H22.6C22.985 32.1402 23.3572 32.0014 23.6481 31.7492C23.9391 31.4971 24.1293 31.1485 24.184 30.7673L27.1872 9.74014H28.7C28.8657 9.74014 29 9.60582 29 9.44014V6.84014C29 6.67445 28.8657 6.54014 28.7 6.54014H26.7888L24.0304 1.02494C23.8979 0.758974 23.6938 0.535254 23.4411 0.378942C23.1884 0.22263 22.8971 0.139928 22.6 0.140137H6.60001C5.99361 0.140137 5.44001 0.482537 5.16801 1.02494L2.41121 6.54014H0.500013C0.334327 6.54014 0.200012 6.67445 0.200012 6.84014V9.44014C0.200012 9.60582 0.334327 9.74014 0.500012 9.74014H2.01281L5.01601 30.7673C5.07069 31.1485 5.26095 31.4971 5.55191 31.7492C5.84286 32.0014 6.21499 32.1402 6.60001 32.1401ZM23.2688 14.5401H5.93121L5.24481 9.74014H23.9536L23.2688 14.5401ZM7.98721 28.9401L7.30081 24.1401H21.8976L21.2112 28.9401H7.98721ZM7.58881 3.34014H21.6112L23.2112 6.54014H5.98881L7.58881 3.34014Z" fill="#F3F3F3"/>
</svg>
