<svg width="33" height="33" viewBox="0 0 33 33" fill="none" xmlns="http://www.w3.org/2000/svg">
<path d="M9.35861 0.140137H22.7986C27.9186 0.140137 32.0786 4.30014 32.0786 9.42014V22.8601C32.0786 25.3213 31.1009 27.6818 29.3606 29.4221C27.6202 31.1624 25.2598 32.1401 22.7986 32.1401H9.35861C4.23861 32.1401 0.0786133 27.9801 0.0786133 22.8601V9.42014C0.0786133 6.95893 1.05632 4.59852 2.79666 2.85819C4.537 1.11785 6.8974 0.140137 9.35861 0.140137M9.03861 3.34014C7.51097 3.34014 6.04589 3.94699 4.96568 5.0272C3.88547 6.10741 3.27861 7.57249 3.27861 9.10014V23.1801C3.27861 26.3641 5.85461 28.9401 9.03861 28.9401H23.1186C24.6463 28.9401 26.1113 28.3333 27.1916 27.2531C28.2718 26.1729 28.8786 24.7078 28.8786 23.1801V9.10014C28.8786 5.91614 26.3026 3.34014 23.1186 3.34014H9.03861ZM24.4786 5.74014C25.009 5.74014 25.5178 5.95085 25.8928 6.32592C26.2679 6.701 26.4786 7.2097 26.4786 7.74014C26.4786 8.27057 26.2679 8.77928 25.8928 9.15435C25.5178 9.52942 25.009 9.74014 24.4786 9.74014C23.9482 9.74014 23.4395 9.52942 23.0644 9.15435C22.6893 8.77928 22.4786 8.27057 22.4786 7.74014C22.4786 7.2097 22.6893 6.701 23.0644 6.32592C23.4395 5.95085 23.9482 5.74014 24.4786 5.74014ZM16.0786 8.14014C18.2003 8.14014 20.2352 8.98299 21.7355 10.4833C23.2358 11.9836 24.0786 14.0184 24.0786 16.1401C24.0786 18.2619 23.2358 20.2967 21.7355 21.797C20.2352 23.2973 18.2003 24.1401 16.0786 24.1401C13.9569 24.1401 11.9221 23.2973 10.4218 21.797C8.92147 20.2967 8.07861 18.2619 8.07861 16.1401C8.07861 14.0184 8.92147 11.9836 10.4218 10.4833C11.9221 8.98299 13.9569 8.14014 16.0786 8.14014M16.0786 11.3401C14.8056 11.3401 13.5847 11.8458 12.6845 12.746C11.7843 13.6462 11.2786 14.8671 11.2786 16.1401C11.2786 17.4132 11.7843 18.6341 12.6845 19.5343C13.5847 20.4344 14.8056 20.9401 16.0786 20.9401C17.3517 20.9401 18.5726 20.4344 19.4727 19.5343C20.3729 18.6341 20.8786 17.4132 20.8786 16.1401C20.8786 14.8671 20.3729 13.6462 19.4727 12.746C18.5726 11.8458 17.3517 11.3401 16.0786 11.3401Z" fill="#F3F3F3"/>
</svg>
